<?xml version="1.0" encoding="UTF-8"?>
<svg width="25px" height="25px" viewBox="0 0 25 25" version="1.1" xmlns="http://www.w3.org/2000/svg" xmlns:xlink="http://www.w3.org/1999/xlink">
    <title>Group 8</title>
    <g id="Page-1" stroke="none" stroke-width="1" fill="none" fill-rule="evenodd">
        <g id="4-动态帖子内容-copy-2" transform="translate(-637.000000, -1094.000000)">
            <g id="Group-18" transform="translate(0.000000, 128.000000)">
                <g id="Group-24" transform="translate(43.000000, 967.000000)">
                    <g id="Group-8" transform="translate(595.000000, 0.000000)">
                        <polygon id="Triangle" stroke="#4D4D4D" stroke-linejoin="round" points="11.5 0 23 23 0 23"></polygon>
                        <g id="！" transform="translate(9.986302, 7.434000)" fill="#4D4D4D" fill-rule="nonzero">
                            <path d="M0.266,0 L0.551,9.918 L1.729,9.918 L2.033,0 L0.266,0 Z M1.14,11.305 C0.817,11.305 0.551,11.4 0.323,11.628 C0.095,11.837 0,12.103 0,12.426 C0,12.749 0.095,13.015 0.323,13.243 C0.551,13.452 0.817,13.566 1.14,13.566 C1.463,13.566 1.748,13.452 1.976,13.243 C2.185,13.034 2.299,12.768 2.299,12.426 C2.299,12.103 2.185,11.837 1.976,11.628 C1.748,11.4 1.463,11.305 1.14,11.305 Z" id="形状"></path>
                        </g>
                    </g>
                </g>
            </g>
        </g>
    </g>
</svg>