<?xml version="1.0" encoding="UTF-8"?>
<svg width="22px" height="23px" viewBox="0 0 22 23" version="1.1" xmlns="http://www.w3.org/2000/svg" xmlns:xlink="http://www.w3.org/1999/xlink">
    <title>Fill 1</title>
    <g id="Page-1" stroke="none" stroke-width="1" fill="none" fill-rule="evenodd">
        <g id="2-个人主页-copy-2" transform="translate(-283.000000, -356.000000)" fill="#CF5735">
            <g id="Group-24" transform="translate(0.000000, 114.000000)">
                <g id="Group-10" transform="translate(34.000000, 191.000000)">
                    <g id="Group-7" transform="translate(249.000000, 51.000000)">
                        <path d="M17.8741459,6.19974659 L17.7770929,6.00650325 L17.3190027,5.08989144 L17.0658021,4.58305903 L16.4990125,4.58305903 L13.2910869,4.58305903 L12.8506819,4.58305903 L12.5754826,4.92684238 L11.0174582,6.87437288 L10.9993417,6.87437288 L10.9816565,6.87437288 L9.42363207,4.92684238 L9.14843285,4.58305903 L8.70802784,4.58305903 L5.50010219,4.58305903 L4.93331258,4.58305903 L4.68011205,5.08989144 L4.22202182,6.00650325 L4.1249688,6.19974659 L4.1249688,6.41628265 L4.1249688,6.87437288 L4.1249688,7.79098468 L4.1249688,15.8321505 L4.1249688,16.299299 L4.50239719,16.5736355 L10.4605896,20.4751667 C10.7819429,20.7089566 11.2171718,20.7089566 11.5385251,20.4751667 L17.4967175,16.5736355 L17.8741459,16.299299 L17.8741459,15.8321505 L17.8741459,7.79098468 L17.8741459,6.87437288 L17.8741459,6.41628265 L17.8741459,6.19974659 Z M21.9991147,2.74983542 L21.9991147,3.66644723 L21.5405931,4.12453746 L19.2492793,6.41628265 L19.2492793,16.4886602 C19.2492793,16.7828387 19.1077976,17.0593319 18.8692628,17.2314393 L11.5363684,22.0965991 C11.2158777,22.3278009 10.783237,22.3278009 10.4627463,22.0965991 L3.12985189,17.2314393 C2.89131715,17.0593319 2.74983542,16.7828387 2.74983542,16.4886602 L2.74983542,6.41628265 L0.458521577,4.12453746 L0,3.66644723 L0,2.74983542 L4.1249688,2.74983542 L9.16654941,0 L11.4578633,0 L12.8325653,0 L17.8741459,2.74983542 L21.9991147,2.74983542 Z M15.1614063,15.1329374 C14.8033885,14.9957692 14.5570895,14.8926773 14.4229407,14.8240932 C14.2883605,14.7550777 14.1438594,14.6537112 13.9885745,14.5195624 C13.8332897,14.3854135 13.573619,14.1356638 13.2095623,13.7716071 C13.1138034,13.6762795 13.0396117,13.5956177 12.9856934,13.530053 C12.7406884,13.2673628 12.585835,13.112078 12.5198389,13.0646298 C12.6332831,12.9869874 13.1138034,12.9481662 13.961831,12.9481662 L14.9107939,12.9567932 C14.9405568,12.9567932 14.9677316,12.9421274 14.9914557,12.9123644 C15.0151798,12.8821702 15.0272575,12.8463684 15.0272575,12.8049591 C15.0272575,12.7510408 15.0121603,12.7061807 14.9823974,12.6703789 C14.9168327,12.5392495 14.8046826,12.4107082 14.6468097,12.2851863 C14.4885054,12.1596644 14.3465923,12.0794339 14.2215018,12.0436321 C14.1140964,12.0794339 14.0334346,12.103158 13.9795163,12.1152357 C13.6689466,12.2166022 13.401943,12.29597 13.178074,12.3524764 C12.9542051,12.4094142 12.7230032,12.44651 12.4840371,12.4641952 C12.4723908,12.2735399 12.4603131,12.0108498 12.4482354,11.6765561 C12.585835,11.6644783 12.737669,11.6644783 12.9050315,11.6765561 C12.9766351,11.6821636 13.081021,11.685183 13.2186206,11.685183 C13.4873496,11.685183 13.671966,11.6493812 13.7737639,11.5777776 C13.7974879,11.5661313 13.8138791,11.555779 13.8229374,11.5467207 C13.8319957,11.5376624 13.8393286,11.5242907 13.8453674,11.5061741 C13.8509749,11.4884889 13.8600332,11.4703723 13.8721109,11.4526871 C13.8841886,11.4168853 13.8902275,11.3931612 13.8902275,11.3810835 C13.8902275,11.3332041 13.8708169,11.2866186 13.8319957,11.2421899 C13.7931745,11.1973298 13.7422756,11.1524698 13.6797303,11.1076097 C13.6167537,11.0627497 13.5705996,11.0286733 13.5408366,11.0049492 C13.6245179,10.6823018 13.7258844,10.3898487 13.8453674,10.1271586 C13.9648505,9.86489977 14.1257428,9.62593368 14.3289071,9.41069167 C14.3168294,9.27956226 14.2810276,9.17819578 14.2215018,9.10659222 C14.1615446,9.03498866 14.0722558,8.95734625 13.9527728,8.87366498 C13.9406951,8.86158727 13.9035992,8.83311839 13.8406226,8.78825833 C13.7780773,8.74382962 13.722865,8.69163666 13.6754168,8.63167947 C13.30489,8.65583488 12.9796545,8.69163666 12.6988478,8.73951615 C12.4184724,8.78739564 12.1648406,8.85899919 11.9379522,8.95432682 C11.7589433,9.02593038 11.5764836,9.07510391 11.3918672,9.10227875 C11.2063881,9.12902225 10.9648339,9.142394 10.666342,9.142394 C10.5886996,9.02291095 10.5007049,8.92715198 10.4023578,8.85554842 C10.3040107,8.78394486 10.1797829,8.70932188 10.0305369,8.63167947 C9.947287,8.8646067 9.90544637,9.19588099 9.90544637,9.62593368 C9.90544637,10.0913568 9.947287,10.4972541 10.0305369,10.8436255 C10.0602998,10.9751863 10.075397,11.1658415 10.075397,11.4168853 C10.0814358,11.6912218 10.1021405,11.8956802 10.1379423,12.0302604 C10.173744,12.1644092 10.2604447,12.2316993 10.397613,12.2316993 C10.5231349,12.2316993 10.6098356,12.222641 10.6577151,12.2045245 C10.7051632,12.1868392 10.7426904,12.1540569 10.7694339,12.1061774 C10.7961774,12.0587293 10.8246463,12.0138692 10.8544092,11.9720286 C10.9441293,11.9241491 11.0338494,11.8853279 11.1231382,11.8555649 C11.2128583,11.8253707 11.353046,11.8016466 11.5441326,11.7839614 C11.555779,11.8434872 11.5618178,11.9332074 11.5618178,12.0522591 L11.5618178,12.2316993 C11.5618178,12.3391046 11.5708761,12.4374517 11.5889927,12.5271718 C11.5648372,12.6048142 11.5290355,12.6613206 11.481156,12.6971224 C11.4332765,12.7329242 11.3651237,12.7583737 11.2754036,12.7734708 C11.1856835,12.7881366 11.1140799,12.8019397 11.0605929,12.813586 C11.0066746,12.8256637 10.9467174,12.843349 10.881584,12.8675044 C10.5886996,12.9507543 10.2915017,13.0197698 9.99042167,13.0732568 C9.68891031,13.1271751 9.32916713,13.1539186 8.91119215,13.1539186 C8.92930871,13.2794405 8.97416877,13.3984922 9.04577233,13.5119364 C9.11737589,13.6253806 9.20839005,13.7327859 9.31881481,13.8345838 C9.42923957,13.9359502 9.49911775,14.0015149 9.52931202,14.0312779 C9.5707213,14.0312779 9.77086619,13.9566549 10.1293153,13.8074089 C10.4515313,13.6642018 10.7025751,13.5658547 10.881584,13.5119364 C10.8695063,13.6137342 10.7383769,13.8583078 10.4873331,14.2465199 C10.2367207,14.6343006 9.96367818,15.032865 9.66820566,15.4417817 C9.37273315,15.8506984 9.19199887,16.0909585 9.12643417,16.1625621 C9.2338395,16.1267603 9.38265413,16.0374715 9.57417208,15.8938331 C9.68157741,15.8101518 9.76180791,15.7506259 9.81572625,15.7148242 C10.0904941,15.5474616 10.3096183,15.3982157 10.4739614,15.2670863 C10.6383045,15.1359568 10.8065297,14.9673003 10.9799311,14.7611165 C11.1529011,14.5553641 11.3767701,14.2551468 11.6515379,13.8613273 L11.5976196,15.6432206 C11.555779,15.8101518 11.4871948,15.9568097 11.3918672,16.0819002 C11.2961082,16.2074221 11.1856835,16.2699674 11.0605929,16.2699674 C11.1321965,16.3294933 11.1917223,16.3834116 11.2396018,16.4312911 C11.28705,16.4791706 11.3293219,16.5175604 11.3651237,16.5477547 C11.5199772,16.6909618 11.6334214,16.7893089 11.7050249,16.8432272 C11.7766285,16.8967142 11.8486634,16.9238891 11.920267,16.9238891 C11.9858317,16.9238891 12.0526904,16.8984396 12.1217059,16.8475407 C12.19029,16.7966418 12.2752653,16.708647 12.3766318,16.5835565 C12.4603131,16.4761511 12.5021537,16.3445904 12.5021537,16.1893056 C12.5021537,16.1474649 12.4961148,16.0668031 12.4840371,15.9477514 C12.4723908,15.7803889 12.4663519,15.6402012 12.4663519,15.526757 C12.4663519,15.3719035 12.4723908,15.2463816 12.4840371,15.1506226 C12.490076,15.0850579 12.49137,15.0151798 12.4887819,14.9401254 C12.4857625,14.8655024 12.4840371,14.7956243 12.4840371,14.7296282 L12.4840371,14.4164705 C12.4840371,13.9924567 12.5142314,13.7599608 12.5737573,13.7181201 C12.6272443,13.8255255 12.7079061,14.0135926 12.8153114,14.2823217 C12.952911,14.6403395 13.079727,14.9388314 13.1961906,15.1773661 C13.3126542,15.4163322 13.4528419,15.6255354 13.6167537,15.8045443 C13.7810968,15.9835532 13.9648505,16.0732733 14.1675834,16.0732733 C14.239187,15.9951995 14.4151765,15.8429341 14.6959832,15.6164771 C14.8870698,15.4672311 15.022944,15.3537869 15.1036058,15.2761445 C15.1838363,15.1985021 15.2032469,15.1506226 15.1614063,15.1329374 L15.1614063,15.1329374 Z M8.88444865,16.1806786 C8.88444865,16.1267603 8.8784098,16.0521373 8.86676344,15.9568097 C8.83656916,15.795486 8.82190338,15.228265 8.82190338,14.2551468 C8.82190338,13.574913 8.8322557,12.9537737 8.85296034,12.3925916 C8.87409633,11.8318409 8.90256521,11.5182518 8.93836699,11.4526871 C8.9504447,11.3573595 8.93836699,11.2913634 8.90256521,11.2555616 C8.86676344,11.2197599 8.8055122,11.2016433 8.71881151,11.2016433 C8.63211081,11.2016433 8.56223264,11.1986239 8.5083143,11.1930164 C8.64548256,11.0437704 8.79515988,10.8138626 8.95605221,10.5032929 C9.11737589,10.1931546 9.24289779,9.90630906 9.33218656,9.6436189 C9.37402719,9.61385598 9.42751419,9.54656589 9.49351024,9.44217998 C9.55907494,9.33779407 9.60652308,9.24677991 9.63671735,9.1691375 C9.66648028,9.09149508 9.65440257,9.05871273 9.60091557,9.07079044 C9.58883787,8.97546281 9.50256852,8.87970384 9.34124484,8.78394486 C9.17992116,8.68861723 8.99055995,8.6079554 8.77272985,8.54239069 C8.55489975,8.47682599 8.36510719,8.44404364 8.20421485,8.44404364 C8.21586122,8.47984542 8.24001663,8.53635184 8.27581841,8.61399425 C8.30514999,8.65583488 8.32628598,8.69595013 8.33836369,8.73477134 C8.35001005,8.77359254 8.35648025,8.82880492 8.35648025,8.90040848 C8.35648025,9.34253888 8.19515657,9.97489319 7.87250922,10.7987655 L6.81614107,12.9209914 C7.15043479,12.7238659 7.50845257,12.371887 7.89062578,11.8641919 C7.95015163,12.3477316 7.9803459,12.983968 7.9803459,13.7716071 C7.9803459,14.5182683 7.95317106,15.1838363 7.89925271,15.7687425 C7.89364521,15.8222295 7.87854807,15.9119496 7.854824,16.0374715 C7.81902222,16.1686009 7.80090566,16.2820451 7.80090566,16.3773727 C7.86647036,16.4550152 8.0070894,16.5654399 8.22190007,16.708647 C8.37718489,16.7983672 8.48459023,16.8729901 8.54411608,16.932516 C8.65195276,16.932516 8.73520268,16.8548736 8.79515988,16.7000201 C8.85468573,16.5443039 8.88444865,16.3717652 8.88444865,16.1806786 L8.88444865,16.1806786 Z M16.4990125,5.49967084 L16.9575341,6.41628265 L16.9575341,6.87437288 L16.9575341,7.79098468 L16.9575341,15.2222262 C16.9575341,15.6056934 16.7742117,15.965868 16.4640734,16.191031 L11.7037309,19.2216731 C11.2840305,19.5270666 10.7150842,19.5270666 10.2953838,19.2216731 L5.53504127,16.191031 C5.22490297,15.965868 5.04158061,15.6056934 5.04158061,15.2222262 L5.04158061,7.79098468 L5.04158061,6.87437288 L5.04158061,6.41628265 L5.50010219,5.49967084 L8.70802784,5.49967084 L10.5412515,7.79098468 L10.9993417,7.79098468 L11.4578633,7.79098468 L13.2910869,5.49967084 L16.4990125,5.49967084 Z M13.6038133,9.54527185 C13.6038133,9.57503477 13.6124402,9.6168754 13.6305568,9.6703624 C13.6245179,9.60522904 13.6154596,9.56295706 13.6038133,9.54527185 L13.6038133,9.54527185 Z M12.5737573,10.8617421 C12.2933819,10.9570697 12.0319858,11.0360062 11.7904316,11.0985514 C11.5484461,11.1615281 11.3051665,11.1986239 11.0605929,11.2107016 C11.0722393,11.0316927 11.0782781,10.9001319 11.0782781,10.816882 C11.0782781,10.5602307 11.0515346,10.2229176 10.9980476,9.80494258 C11.105453,9.78121851 11.233563,9.74541673 11.3828089,9.69753724 C11.6873397,9.60781712 11.9603822,9.53793895 12.2023677,9.48704004 C12.4439219,9.43614112 12.7109255,9.41069167 13.0033786,9.41069167 C13.0154563,9.42880823 13.0214952,9.46159058 13.0214952,9.50947007 C13.0214952,9.64663833 12.9693022,9.85713553 12.8649163,10.1405303 C12.7605304,10.4243565 12.663046,10.6646166 12.5737573,10.8617421 L12.5737573,10.8617421 Z" id="Fill-1"></path>
                    </g>
                </g>
            </g>
        </g>
    </g>
</svg>