<?xml version="1.0" encoding="UTF-8"?>
<svg width="61px" height="51px" viewBox="0 0 61 51" version="1.1" xmlns="http://www.w3.org/2000/svg" xmlns:xlink="http://www.w3.org/1999/xlink">
    <title>Fill 1</title>
    <g id="Page-1" stroke="none" stroke-width="1" fill="none" fill-rule="evenodd">
        <g id="15-实时专场-主拍-copy-4" transform="translate(-637.000000, -1004.000000)" fill="#FFFFFF">
            <g id="Group-8-Copy" transform="translate(620.000000, 982.000000)">
                <path d="M68.9793037,54.9976528 C70.0468693,55.4935917 70.5103051,56.7609062 70.0149766,57.8287771 C65.9437763,66.5693562 57.1024072,72.2187102 47.4882127,72.2187102 C34.663539,72.2187102 24.0777621,62.4552762 22.7693228,49.9703587 L21.4809499,51.2587316 C20.6487645,52.0912222 19.2995819,52.0914511 18.4671676,51.259342 C17.634677,50.4276144 17.6344481,49.077974 18.4665572,48.2458649 L23.2536643,43.4584526 C24.0857734,42.6277932 25.4332012,42.6277932 26.2653866,43.4584526 L31.049518,48.2458649 C31.6196188,48.7769772 31.8545412,49.5768885 31.6616592,50.3319363 C31.4688534,51.0868316 30.8792965,51.6763121 30.1244013,51.8691179 C29.3694298,52.062 28.5692133,51.827459 28.038101,51.2573582 L27.1332796,50.3539102 C28.5906531,60.293288 37.1479638,67.9571457 47.4882127,67.9571457 C55.4530671,67.9571457 62.7788471,63.2751776 66.1482557,56.0303501 C66.3866879,55.5177783 66.8188414,55.1211035 67.3499538,54.927611 C67.8807609,54.7338897 68.4669607,54.7589155 68.9793037,54.9976528 L68.9793037,54.9976528 Z M73.4937207,43.4599786 C74.0287243,42.9062056 74.8211583,42.6838724 75.5659821,42.8787382 C76.3111112,43.0739855 76.8928856,43.65576 77.0877515,44.4005838 C77.2829988,45.1456366 77.0606656,45.9378417 76.5068926,46.4728453 L71.722456,51.2573582 C71.3237211,51.6579242 70.7818507,51.8828516 70.2167856,51.8828516 C69.6514153,51.8828516 69.1095448,51.6579242 68.7107337,51.2573582 L63.9251526,46.4728453 C63.3710744,45.9378417 63.1490464,45.1456366 63.3439885,44.4005838 C63.5391595,43.65576 64.120934,43.0739855 64.8657578,42.8787382 C65.6108869,42.6838724 66.4030157,42.9062056 66.9380193,43.4599786 L67.841391,44.3647999 C66.3839412,34.4254222 57.8266305,26.7616408 47.4866868,26.7616408 C39.5230531,26.7616408 32.1975783,31.4435325 28.8264149,38.68836 C28.3060605,39.7123593 27.0676631,40.1400875 26.0260388,39.6551356 C24.9846435,39.1705652 24.5143409,37.9476563 24.9625933,36.8899331 C29.0282238,28.1481332 37.8725686,22.5 47.4852371,22.5 C60.3125813,22.5 70.8956877,32.263205 72.2052715,44.7469018 L73.4924999,43.4599786 L73.4937207,43.4599786 Z" id="Fill-1"></path>
            </g>
        </g>
    </g>
</svg>