<?xml version="1.0" encoding="UTF-8"?>
<svg width="28px" height="31px" viewBox="0 0 28 31" version="1.1" xmlns="http://www.w3.org/2000/svg" xmlns:xlink="http://www.w3.org/1999/xlink">
    <title>3-实时专场-参拍 copy 3</title>
    <g id="Page-1" stroke="none" stroke-width="1" fill="none" fill-rule="evenodd">
        <g id="转发" transform="translate(0.000000, -11.072330)">
            <g id="¥" transform="translate(7.624000, 20.960330)" fill="#CF5735" fill-rule="nonzero">
                <path d="M4.92,17.112 L7.104,17.112 L7.104,12.864 L11.472,12.864 L11.472,11.592 L7.104,11.592 L7.104,9.84 L11.472,9.84 L11.472,8.592 L7.656,8.592 L12.072,0 L9.864,0 L7.752,4.608 C7.2,5.784 6.696,6.96 6.12,8.232 L6,8.232 C5.424,6.96 4.92,5.784 4.392,4.608 L2.304,0 L0,0 L4.368,8.592 L0.6,8.592 L0.6,9.84 L4.92,9.84 L4.92,11.592 L0.6,11.592 L0.6,12.864 L4.92,12.864 L4.92,17.112 Z" id="路径"></path>
            </g>
            <rect id="Rectangle-8" stroke="#CF5735" stroke-width="2" x="1" y="12.0723305" width="26" height="29" rx="3"></rect>
            <polyline id="Rectangle-9" stroke="#CF5735" stroke-width="2" stroke-linejoin="round" transform="translate(13.643398, 13.214466) rotate(-315.000000) translate(-13.643398, -13.214466) " points="22.9874369 3.87042751 18.1725782 17.743646 4.2993597 22.5585047"></polyline>
        </g>
    </g>
</svg>