<?xml version="1.0" encoding="UTF-8"?>
<svg width="87px" height="64px" viewBox="0 0 87 64" version="1.1" xmlns="http://www.w3.org/2000/svg" xmlns:xlink="http://www.w3.org/1999/xlink">
    <title>Group</title>
    <defs>
        <polygon id="path-1" points="0 0 80.1984127 0 80.1984127 62.4703425 0 62.4703425"></polygon>
    </defs>
    <g id="Page-1" stroke="none" stroke-width="1" fill="none" fill-rule="evenodd">
        <g id="1-首页-copy2" transform="translate(-624.000000, -716.000000)">
            <g id="Group-42" transform="translate(-35.000000, 532.000000)">
                <g id="8个图标" transform="translate(66.000000, 0.000000)">
                    <g id="Group-Copy" transform="translate(0.000000, 169.000000)">
                        <g id="Group-17" transform="translate(589.000000, 0.000000)">
                            <g id="Group" transform="translate(4.421053, 15.140351)">
                                <mask id="mask-2" fill="white">
                                    <use xlink:href="#path-1"></use>
                                </mask>
                                <g id="Clip-2"></g>
                                <path d="M80.7082429,35.1980011 C80.5435426,35.0037147 80.3473039,34.8930304 80.120695,34.8671255 C79.8929179,34.8412207 79.693175,34.9083378 79.5214661,35.0684768 L78.8579925,34.2112618 C78.9748013,33.922776 79.0145162,33.6307577 78.9771374,33.3352069 C78.9397586,33.0384786 78.8194456,32.7629452 78.6173665,32.5074292 L72.3634267,24.5028308 C72.1823732,24.2414273 71.9534281,24.0624484 71.6730871,23.9682489 C71.3927461,23.872872 71.1053966,23.8387247 70.8087025,23.8646295 L70.1534054,23.0403843 C70.3461399,22.8743578 70.454772,22.6777164 70.4804699,22.4469277 C70.5061678,22.2184941 70.4395868,22.0171427 70.280727,21.8452287 C70.1393884,21.6450549 69.9536625,21.5320156 69.7270535,21.5061107 C69.4981084,21.4802059 69.2960293,21.5367255 69.1208162,21.6744922 L62.4685586,26.9543715 C62.2921774,27.0921382 62.1858815,27.2770047 62.1485027,27.5089708 C62.112292,27.7421144 62.1730325,27.9446433 62.3318924,28.1165573 C62.4954246,28.3108436 62.6858229,28.4227055 62.9030871,28.4509653 C63.1191833,28.4792252 63.3271028,28.4227055 63.5256777,28.2790513 L64.1821428,29.1032965 C64.0653341,29.3906049 64.0256191,29.6826232 64.0629979,29.9793514 C64.1003767,30.2760797 64.2195216,30.5516131 64.4227688,30.8071291 L66.4634174,33.4388263 C66.0277208,33.7591045 65.4109707,34.1935994 64.613167,34.7446662 C63.8141953,35.2945555 62.9463064,35.897432 62.0106684,36.5521182 C61.0738623,37.2079819 60.1136945,37.8803305 59.1278287,38.571519 C58.141963,39.2627074 57.2261825,39.9067962 56.3816553,40.5037852 C55.5359601,41.1007743 54.8082416,41.6106288 54.2008362,42.0309938 C53.5922627,42.4525364 53.1962811,42.7210048 53.0152275,42.8363992 C52.6507843,43.0683653 52.4183349,43.3544961 52.3155432,43.6971467 C52.2127515,44.0397972 52.1882217,44.3930451 52.2419537,44.755713 C52.2945176,45.1183809 52.3949731,45.4586764 52.5421521,45.7742446 C52.6893312,46.0898127 52.8318378,46.3370863 52.967336,46.5148878 C53.1040022,46.6926892 53.3014089,46.8787331 53.5583882,47.0730195 C53.8165355,47.2684834 54.1027169,47.4144925 54.4181005,47.513402 C54.7334841,47.6111339 55.066389,47.6405712 55.4191513,47.6005364 C55.7695776,47.5605017 56.1083229,47.3932977 56.4342193,47.1012794 C56.6269537,46.9364303 56.9995736,46.6031997 57.5544151,46.1015877 C58.1069204,45.5999756 58.7715621,45.0006316 59.546004,44.3035556 C60.3204459,43.6064797 61.1544603,42.864659 62.0468791,42.0792711 C62.9392978,41.2938831 63.8001782,40.5214476 64.6295203,39.7643195 C65.4600304,39.0060139 66.2286319,38.3101155 66.9364928,37.6766242 C67.6443538,37.0419554 68.2003634,36.5462307 68.6021854,36.1882728 L70.6767086,38.8117276 C70.856594,39.073131 71.0867072,39.2509325 71.3658801,39.3463095 C71.6462211,39.4416864 71.9347387,39.4758337 72.2314329,39.4499289 L72.8949065,40.3071439 C72.6974997,40.450798 72.5841953,40.636842 72.5584973,40.8664531 C72.5339675,41.0960643 72.5923719,41.3115455 72.7337104,41.5105419 C72.8925703,41.6836334 73.0876409,41.7872528 73.3177541,41.8249325 C73.5478673,41.8614348 73.7487784,41.8002052 73.9193191,41.6400661 L80.5470469,36.4013991 C80.7397813,36.23655 80.8484134,36.0387312 80.8752794,35.80912 C80.8998092,35.5795089 80.8449091,35.3758026 80.7082429,35.1980011" id="Fill-1" fill="#DD6474" transform="translate(66.547619, 34.558934) scale(-1, 1) rotate(-30.000000) translate(-66.547619, -34.558934) "></path>
                                <path d="M47.3323764,35.8333333 C44.3010717,38.5614661 40.3607249,40.3800832 35.813975,40.3800832 C31.267462,40.3800832 27.3268192,38.5614661 23.9925794,35.8333333 C16.4147616,39.7737394 11.2619048,44.926833 11.2619048,54.3232086 L59.7598791,54.3232086 C59.7598791,44.926833 54.6070223,40.0769113 47.3323764,35.8333333" id="Fill-3" fill="#DD6474"></path>
                                <path d="M35.1402495,37.1005958 C42.7180673,37.1005958 48.7802031,30.7352881 48.7802031,23.1574704 C48.7802031,15.5796526 42.7180673,9.21428571 35.1402495,9.21428571 C27.5624318,9.21428571 21.5,15.5796526 21.5,23.1574704 C21.5,31.03846 27.8653669,37.1005958 35.1402495,37.1005958" id="Fill-1" fill="#DD6474"></path>
                            </g>
                        </g>
                    </g>
                </g>
            </g>
        </g>
    </g>
</svg>