<?xml version="1.0" encoding="UTF-8"?>
<svg width="40px" height="45px" viewBox="0 0 40 45" version="1.1" xmlns="http://www.w3.org/2000/svg" xmlns:xlink="http://www.w3.org/1999/xlink">
    <title>Fill 1</title>
    <g id="Page-1" stroke="none" stroke-width="1" fill="none" fill-rule="evenodd">
        <g id="8-发布引导页-copy-2" transform="translate(-171.000000, -1060.000000)" fill="#627D8F">
            <g id="Group-4" transform="translate(141.000000, 437.000000)">
                <g id="Group-3-Copy-3" transform="translate(0.000000, 570.000000)">
                    <g id="Group-8" transform="translate(0.000000, 25.000000)">
                        <path d="M64.6871343,42.3692841 L43.464153,42.3692841 C42.8964338,42.3692841 42.4362978,41.9091482 42.4362978,41.3411842 C42.4362978,40.7734037 42.8964338,40.3132678 43.464153,40.3132678 L64.6871343,40.3132678 C65.2550983,40.3132678 65.7152954,40.7734037 65.7152954,41.3411842 C65.7152954,41.9091482 65.2550983,42.3692841 64.6871343,42.3692841 M64.6871343,51.2698145 L43.464153,51.2698145 C42.8964338,51.2698145 42.4362978,50.8096174 42.4362978,50.2416534 C42.4362978,49.6736893 42.8964338,49.2134922 43.464153,49.2134922 L64.6871343,49.2134922 C65.2550983,49.2134922 65.7152954,49.6736893 65.7152954,50.2416534 C65.7152954,50.8096174 65.2550983,51.2698145 64.6871343,51.2698145 M64.6871343,60.1700389 L43.464153,60.1700389 C42.8964338,60.1700389 42.4362978,59.709903 42.4362978,59.1421838 C42.4362978,58.5741585 42.8964338,58.1140226 43.464153,58.1140226 L64.6871343,58.1140226 C65.2550983,58.1140226 65.7152954,58.5741585 65.7152954,59.1421838 C65.7152954,59.709903 65.2550983,60.1700389 64.6871343,60.1700389 M37.3641546,43.3974452 C36.2284101,43.3974452 35.3080771,42.4771122 35.3080771,41.3411842 C35.3080771,40.2054397 36.2284101,39.2851067 37.3641546,39.2851067 C38.5000826,39.2851067 39.4204156,40.2054397 39.4204156,41.3411842 C39.4204156,42.4771122 38.5000826,43.3974452 37.3641546,43.3974452 M37.3641546,52.2979756 C36.2284101,52.2979756 35.3080771,51.3773978 35.3080771,50.2416534 C35.3080771,49.1059089 36.2284101,48.1853311 37.3641546,48.1853311 C38.5000826,48.1853311 39.4204156,49.1059089 39.4204156,50.2416534 C39.4204156,51.3773978 38.5000826,52.2979756 37.3641546,52.2979756 M37.3641546,61.1982 C36.2284101,61.1982 35.3080771,60.277867 35.3080771,59.1421838 C35.3080771,58.0061945 36.2284101,57.0858615 37.3641546,57.0858615 C38.5000826,57.0858615 39.4204156,58.0061945 39.4204156,59.1421838 C39.4204156,60.277867 38.5000826,61.1982 37.3641546,61.1982 M66.4300084,28.3333333 L33.5699762,28.3333333 C32.0572618,28.3333333 30.8333333,29.5572618 30.8333333,31.0699762 L30.8333333,69.4083124 C30.8333333,70.9212716 32.0572618,72.1452001 33.5699762,72.1452001 L66.4300084,72.1452001 C67.9427229,72.1452001 69.1666667,70.9212716 69.1666667,69.4083124 L69.1666667,31.0699762 C69.1716695,29.5572618 67.9427229,28.3333333 66.4300084,28.3333333" id="Fill-1"></path>
                    </g>
                </g>
            </g>
        </g>
    </g>
</svg>