<?xml version="1.0" encoding="UTF-8"?>
<svg width="35px" height="28px" viewBox="0 0 35 28" version="1.1" xmlns="http://www.w3.org/2000/svg" xmlns:xlink="http://www.w3.org/1999/xlink">
    <title>Group</title>
    <g id="Page-1" stroke="none" stroke-width="1" fill="none" fill-rule="evenodd">
        <g id="7-发帖-copy-2" transform="translate(-39.000000, -1271.000000)">
            <g id="Group-6" transform="translate(0.000000, 52.000000)">
                <g id="Group" transform="translate(40.000000, 1220.000000)">
                    <path d="M29.8052024,25.2285596 L3.16505783,25.2285596 C1.47211807,25.2285596 0.0994373494,23.8560777 0.0994373494,22.1627404 L0.0994373494,3.16527651 C0.0994373494,1.47193916 1.47211807,0.0994572289 3.16505783,0.0994572289 L29.8052024,0.0994572289 C31.498341,0.0994572289 32.8708229,1.47193916 32.8708229,3.16527651 L32.8708229,22.1627404 C32.8708229,23.8560777 31.498341,25.2285596 29.8052024,25.2285596 Z" id="Stroke-1" stroke="#424242" stroke-width="2"></path>
                    <polyline id="Stroke-3" stroke="#424242" stroke-width="2" stroke-linejoin="round" transform="translate(16.258301, 16.241211) scale(1, -1) translate(-16.258301, -16.241211) " points="0.6796875 8.13964844 6.05957031 19.5166016 14.5 11.7480469 22.7402344 24.3427734 31.8369141 8.13964844"></polyline>
                    <circle id="Oval-2" fill="#424242" cx="9.5" cy="7.5" r="2.5"></circle>
                </g>
            </g>
        </g>
    </g>
</svg>