<svg xmlns="http://www.w3.org/2000/svg" xmlns:xlink="http://www.w3.org/1999/xlink" width="32" height="32.00136574034525" viewBox="0 0 32 32.00136574034525" fill="none"><path id="zΩΩΩΩzzzΩΩ" fill-rule="evenodd" style="fill:#CF5735" transform="translate(0 0)  rotate(0 16 16.000682870172646)" opacity="1" d="M3.43995 9.63458C2.15995 9.63458 1.59995 10.1946 1.59995 11.5246L1.59995 20.4646C1.59995 21.7446 2.17995 22.3546 3.43995 22.3546L8.26995 22.3546L15.78 29.6346C16.45 30.2746 17.12 30.5346 17.6 30.3246C18.13 30.0946 18.45 29.2846 18.45 28.1446L18.45 3.82458C18.45 2.70458 18.13 1.88458 17.6 1.66458C17.12 1.45458 16.43 1.71458 15.78 2.35458L8.26995 9.63458L3.43995 9.63458Z M20.06 3.82C20.06 2.02 19.39 0.69 18.24 0.19C17.15 -0.27 15.82 0.11 14.67 1.2L7.63 8.03L3.44 8.03C1.25 8.03 0 9.31 0 11.52L0 20.46C0 22.66 1.28 23.95 3.44 23.95L7.63 23.95L14.67 30.79C15.5 31.59 16.4 32 17.25 32C17.58 32 17.9 31.94 18.24 31.79C19.41 31.31 20.06 29.99 20.06 28.16L20.06 3.82Z M22.3399 9.66143L22.4999 9.87143C23.8899 11.5014 24.6399 13.5714 24.6399 15.7114C24.6399 17.8114 23.8999 19.8414 22.5799 21.4614L22.3999 21.7014C22.2399 21.8114 22.1599 21.9814 22.1599 22.1614C22.1599 22.5014 22.4299 22.7714 22.7699 22.7714C22.9399 22.7714 23.1199 22.6914 23.2599 22.5114L23.4599 22.3214C25.0099 20.4614 25.8699 18.1414 25.8699 15.7114C25.8699 13.2814 25.0099 10.9414 23.4399 9.09143L23.2799 8.86143C23.2199 8.77143 23.0199 8.64143 22.7699 8.64143C22.4299 8.64143 22.1599 8.91143 22.1599 9.25143C22.1599 9.41143 22.2199 9.55143 22.3399 9.66143Z M25.7439 26.6575C25.7439 26.9975 26.0139 27.2675 26.3539 27.2675C26.5439 27.2675 27.0739 26.7975 27.0739 26.7975C30.2539 23.7475 32.0039 19.6675 32.0039 15.2975C32.0039 11.2975 30.4939 7.45752 27.7739 4.49752L27.5639 4.30752C27.4539 4.12752 27.2639 4.01752 27.0739 4.01752C26.7339 4.01752 26.4639 4.28752 26.4639 4.62752C26.4639 4.62752 26.5439 4.94752 26.6739 5.07752C29.3239 7.85752 30.7839 11.4775 30.7839 15.2975C30.7839 19.3575 29.1539 23.1375 26.1939 25.9675L26.0039 26.1775C25.8439 26.2875 25.7439 26.6575 25.7439 26.6575Z " /></svg>