<?xml version="1.0" encoding="UTF-8"?>
<svg width="39px" height="33px" viewBox="0 0 39 33" version="1.1" xmlns="http://www.w3.org/2000/svg" xmlns:xlink="http://www.w3.org/1999/xlink">
    <title>Group 9</title>
    <g id="Page-1" stroke="none" stroke-width="1" fill="none" fill-rule="evenodd">
        <g id="3-实时专场-参拍-copy-3" transform="translate(-637.000000, -720.000000)">
            <g id="Group-18" transform="translate(572.000000, 704.000000)">
                <g id="Group-8-Copy" transform="translate(46.000000, 0.000000)">
                    <g id="Group-9" transform="translate(19.000000, 16.000000)">
                        <path d="M17.2479064,32.0013657 C16.3999395,32.0013657 15.5039235,31.58541 14.6719729,30.7853357 L7.63201508,23.9533949 L3.43995586,23.9533949 C1.27997812,23.9533949 0,22.6574004 0,20.46539 L0,11.5214814 C0,9.31345465 1.24806266,8.03347653 3.43995586,8.03347653 L7.63201508,8.03347653 L14.6719729,1.20153567 C15.8238985,0.113519106 17.1519256,-0.270560272 18.2399422,0.193483558 C19.3920241,0.689403789 20.0638895,2.01746996 20.0638895,3.82540098 L20.0638895,28.1614704 C20.0638895,29.9854568 19.4078841,31.3134839 18.2399422,31.7933879 C17.9039118,31.9374176 17.5839368,32.0013657 17.2479064,32.0013657 L17.2479064,32.0013657 Z" id="Path" fill="#CF5735"></path>
                        <g id="Group-38" transform="translate(28.500000, 16.000000) rotate(-45.000000) translate(-28.500000, -16.000000) translate(22.000000, 10.000000)" stroke="#CF5735" stroke-linecap="round" stroke-width="2">
                            <line x1="0.528808594" y1="5.99150142" x2="12.5288086" y2="5.99150142" id="Path-2"></line>
                            <line x1="6.52880859" y1="0" x2="6.52880859" y2="11.9830028" id="Path-2-Copy"></line>
                        </g>
                    </g>
                </g>
            </g>
        </g>
    </g>
</svg>