<?xml version="1.0" encoding="UTF-8"?>
<svg width="32px" height="32px" viewBox="0 0 32 32" version="1.1" xmlns="http://www.w3.org/2000/svg" xmlns:xlink="http://www.w3.org/1999/xlink">
    <title>zΩΩΩΩzzzΩΩ</title>
    <g id="Page-1" stroke="none" stroke-width="1" fill="none" fill-rule="evenodd">
        <g id="3-实时专场-参拍-copy-3" transform="translate(-638.000000, -806.000000)" fill="#CF5735">
            <g id="Group-18" transform="translate(572.000000, 704.000000)">
                <g id="Group-8" transform="translate(46.000000, 82.000000)">
                    <path d="M23.4399559,29.6334296 C22.1599777,29.6334296 21.5999531,30.1934543 21.5999531,31.5214814 L21.5999531,40.46539 C21.5999531,41.7454854 22.1759941,42.3534418 23.4399559,42.3534418 L28.2720041,42.3534418 L35.7760058,49.6334101 C36.4480275,50.2733992 37.119893,50.5294651 37.5999531,50.3214482 C38.1279451,50.0974539 38.4479201,49.2813634 38.4479201,48.1454541 L38.4479201,23.825401 C38.4479201,22.705508 38.1279451,21.8894175 37.5999531,21.6654232 C37.119893,21.4574454 36.4320112,21.7134722 35.7760058,22.3534613 L28.2720041,29.6334296 L23.4399559,29.6334296 Z M37.2479064,52.0013657 C36.3999395,52.0013657 35.5039235,51.58541 34.6719729,50.7853357 L27.6320151,43.9533949 L23.4399559,43.9533949 C21.2799781,43.9533949 20,42.6574004 20,40.46539 L20,31.5214814 C20,29.3134547 21.2480627,28.0334765 23.4399559,28.0334765 L27.6320151,28.0334765 L34.6719729,21.2015357 C35.8238985,20.1135191 37.1519256,19.7294397 38.2399422,20.1934836 C39.3920241,20.6894038 40.0638895,22.01747 40.0638895,23.825401 L40.0638895,48.1614704 C40.0638895,49.9854568 39.4078841,51.3134839 38.2399422,51.7933879 C37.9039118,51.9374176 37.5839368,52.0013657 37.2479064,52.0013657 L37.2479064,52.0013657 Z M42.7680318,42.7693975 C42.4320014,42.7693975 42.1599191,42.4974715 42.1599191,42.1614802 C42.1599191,41.9853787 42.2398836,41.8094335 42.3999687,41.6974364 L42.575914,41.4573868 C43.9039411,39.8414173 44.6399109,37.809453 44.6399109,35.7134234 C44.6399109,33.569462 43.8879248,31.505465 42.4959495,29.8734793 L42.5119659,29.8574629 L42.3358644,29.6655014 C42.2240235,29.5535043 42.1599191,29.4094354 42.1599191,29.2495065 C42.1599191,28.9135152 42.4320014,28.6414329 42.7680318,28.6414329 C43.0239415,28.6414329 43.215903,28.7694464 43.2799684,28.8654271 L43.4398973,29.0894604 C45.007974,30.9454404 45.8719573,33.2813634 45.8719573,35.7134234 C45.8719573,38.1454834 45.007974,40.46539 43.4559136,42.32137 L43.263952,42.5134879 C43.1199223,42.6894331 42.943977,42.7693975 42.7680318,42.7693975 L42.7680318,42.7693975 Z M46.3520174,47.2654545 C46.015987,47.2654545 45.7439438,46.9933722 45.7439438,46.6573418 C45.7439438,46.4653803 45.8399246,46.289435 45.9999707,46.1774379 L46.1919323,45.96946 C49.1519842,43.1374606 50.78397,39.3615134 50.78397,35.2974676 C50.78397,31.4734324 49.3279295,27.8574141 46.6719924,25.0734636 C46.543979,24.9454502 46.4638583,24.7855213 46.4638583,24.6254361 C46.4638583,24.2894448 46.7359405,24.0175188 47.0719709,24.0175188 C47.2639325,24.0175188 47.4558941,24.1295159 47.5678912,24.3054611 L47.7758691,24.4974227 C50.4958714,27.4574356 52,31.2974872 52,35.2974676 C52,39.6654721 50.255978,43.7453779 47.0719709,46.8014107 C47.0719709,46.7853943 46.543979,47.2654545 46.3520174,47.2654545 L46.3520174,47.2654545 Z" id="zΩΩΩΩzzzΩΩ"></path>
                </g>
            </g>
        </g>
    </g>
</svg>