<?xml version="1.0" encoding="UTF-8"?>
<svg width="58px" height="52px" viewBox="0 0 58 52" version="1.1" xmlns="http://www.w3.org/2000/svg" xmlns:xlink="http://www.w3.org/1999/xlink">
    <title>Group 7</title>
    <g id="Page-1" stroke="none" stroke-width="1" fill="none" fill-rule="evenodd">
        <g id="1-首页-copy2" transform="translate(-445.000000, -725.000000)" fill="#B079B4">
            <g id="Group-42" transform="translate(-35.000000, 532.000000)">
                <g id="8个图标" transform="translate(66.000000, 0.000000)">
                    <g id="Group-Copy" transform="translate(0.000000, 169.000000)">
                        <g id="Group-16" transform="translate(383.000000, 0.000000)">
                            <g id="Group-23" transform="translate(12.666667, 0.000000)">
                                <g id="Group-7" transform="translate(19.000000, 24.000000)">
                                    <path d="M53.2601758,34.895382 C53.2601758,33.765136 52.3421965,32.8544008 51.2028798,32.8544008 C50.9928746,32.8544008 50.8048102,32.9091789 50.6058155,32.9751996 C49.0794398,33.5785557 47.1329732,33.8969382 45.6621327,33.819914 C42.4217187,33.6445764 39.9442515,33.0079708 37.5665227,31 C35.221665,32.9861233 32.2244488,34.1162099 29.0391682,34.1491405 C25.8099255,34.1273728 22.790447,33.3262736 20.4349002,31.3291468 C18.057091,33.3371176 15.0266019,34.3136342 11.7971181,34.3136342 L11.7861075,34.3136342 C9.81737857,34.3136342 8.70040459,33.9407925 6.90872947,33.2824192 C6.86444593,33.2604921 6.80915178,33.2493291 6.753938,33.2274817 C6.66537091,33.1944713 6.59914653,33.1727834 6.51057944,33.1396933 C6.51057944,33.1396933 6.21208748,33.0848355 6.057296,33.0848355 C4.91797933,33.0848355 4,34.0065741 4,35.1255774 L4.01101061,46.065163 C4.01101061,48.9400146 6.37780919,51.2881356 9.28645829,51.2881356 L48.006669,51.266049 C50.9043879,51.2551252 53.2711864,48.9070839 53.2711864,46.0321527 L53.2601758,34.895382 Z" id="Fill-4"></path>
                                    <path d="M44.4732676,18.3015776 L11.5988531,18.3015776 C10.4608984,18.3015776 9.54409681,17.3919658 9.54409681,16.2630341 C9.54409681,15.1344211 10.4608984,14.2248093 11.5988531,14.2248093 L44.484265,14.2248093 C45.6222197,14.2248093 46.5390213,15.1344211 46.5390213,16.2630341 C46.5390213,17.3919658 45.6109011,18.3015776 44.4732676,18.3015776 M56.4477998,16.3178243 C56.4477998,16.2850935 56.4364813,16.2630341 56.4364813,16.2300645 C56.4145667,16.1096536 56.3813335,16.000153 56.3371029,15.8903338 L51.509706,3.98900855 C50.6812853,1.53428306 48.3728654,0 45.4785304,0 L11.6649983,0 C8.82629275,0 6.61693007,1.50131342 5.82142143,3.86859767 L0.640581123,16.0110632 C0.618666505,16.0875942 0.585433349,16.1861846 0.563518732,16.2960038 C0.187839577,17.4466763 0,18.6191692 0,19.8028114 C0,23.9561107 2.29782389,27.748257 5.98726612,29.6986425 C7.50057881,30.5096639 9.29003174,30.9152542 11.3006377,30.9152542 L11.3116351,30.9152542 C14.6809473,30.9041051 17.8068708,29.4357613 19.93885,26.9260068 C22.0598318,29.4246122 25.152763,30.8822846 28.5220752,30.9041051 C31.8581542,30.8822846 34.9511657,29.4137815 37.0612302,26.9151762 C39.1931292,29.4357613 42.3191329,30.8931948 45.7103598,30.8931948 C47.765116,30.8822846 49.5765639,30.4548738 51.1121925,29.6221115 C54.7464067,27.6492684 57,23.8795797 57,19.7698417 C57,18.5752893 56.801163,17.3919658 56.4477998,16.3178243" id="Fill-1"></path>
                                </g>
                            </g>
                        </g>
                    </g>
                </g>
            </g>
        </g>
    </g>
</svg>