<?xml version="1.0" encoding="UTF-8"?>
<svg width="21px" height="18px" viewBox="0 0 21 18" version="1.1" xmlns="http://www.w3.org/2000/svg" xmlns:xlink="http://www.w3.org/1999/xlink">
    <title>Fill 1</title>
    <g id="Page-1" stroke="none" stroke-width="1" fill="none" fill-rule="evenodd">
        <g id="2-个人主页-copy-2" transform="translate(-35.000000, -357.000000)" fill="#CF5735">
            <g id="Group-24" transform="translate(0.000000, 114.000000)">
                <g id="Group-10" transform="translate(34.000000, 191.000000)">
                    <g id="Group-9" transform="translate(1.000000, 51.000000)">
                        <path d="M9.25466038,11.8962264 L10.5,13.141566 L11.7449434,11.8962264 L10.5,10.6508868 L9.25466038,11.8962264 Z M10.5,14.8679245 C8.85843396,14.8679245 7.52830189,13.5373962 7.52830189,11.8962264 C7.52830189,10.2550566 8.85843396,8.9245283 10.5,8.9245283 C12.1411698,8.9245283 13.4716981,10.2550566 13.4716981,11.8962264 C13.4716981,13.5373962 12.1411698,14.8679245 10.5,14.8679245 L10.5,14.8679245 Z M6.73584906,11.8962264 C6.73584906,9.88775472 8.31837736,8.24618868 10.3018868,8.14198113 L10.3018868,6.94339623 L5.94339623,6.94339623 L5.94339623,16.4528302 L10.3018868,16.4528302 L10.3018868,15.6504717 C8.31837736,15.5462642 6.73584906,13.9046981 6.73584906,11.8962264 L6.73584906,11.8962264 Z M10.6981132,6.94339623 L10.6981132,8.14198113 C12.6812264,8.24618868 14.2641509,9.88775472 14.2641509,11.8962264 C14.2641509,13.9046981 12.6812264,15.5462642 10.6981132,15.6504717 L10.6981132,16.4528302 L15.0566038,16.4528302 L15.0566038,6.94339623 L10.6981132,6.94339623 Z M18.2264151,17.245283 L17.8301887,17.245283 L17.8301887,6.94339623 L15.8490566,6.94339623 L15.8490566,17.245283 L10.3018868,17.245283 L9.90566038,17.245283 L5.1509434,17.245283 L5.1509434,6.94339623 L3.16981132,6.94339623 L3.16981132,17.245283 L2.77358491,17.245283 C2.77358491,17.245283 2.37735849,17.245283 1.98113208,17.6415094 L1.18867925,18.8301887 L9.90566038,18.8301887 L10.3018868,18.8301887 L19.8113208,18.8301887 L19.0188679,17.6415094 C18.6226415,17.245283 18.2264151,17.245283 18.2264151,17.245283 L18.2264151,17.245283 Z M4.35849057,6.1509434 C1.98113208,6.1509434 0,4.16981132 0,4.16981132 L3.56603774,4.16981132 L5.1509434,2.18867925 C5.1509434,1.39622642 5.1509434,1 5.54716981,1 C5.94339623,1 6.33962264,1.79245283 6.33962264,1.79245283 L11.0943396,1.79245283 L11.8867925,1.79245283 L14.6603774,1.79245283 C14.6603774,1.79245283 15.0566038,1 15.4528302,1 C15.8490566,1 15.8490566,1.39622642 15.8490566,2.18867925 L17.4339623,4.16981132 L21,4.16981132 C21,4.16981132 19.0188679,6.1509434 16.6415094,6.1509434 L11.8867925,6.1509434 L11.0943396,6.1509434 L4.35849057,6.1509434 Z" id="Fill-1"></path>
                    </g>
                </g>
            </g>
        </g>
    </g>
</svg>