<?xml version="1.0" encoding="UTF-8"?>
<svg width="44px" height="49px" viewBox="0 0 44 49" version="1.1" xmlns="http://www.w3.org/2000/svg" xmlns:xlink="http://www.w3.org/1999/xlink">
    <title>Group 3</title>
    <g id="Page-1" stroke="none" stroke-width="1" fill="none" fill-rule="evenodd">
        <g id="15-实时专场-主拍-copy-4" transform="translate(-646.000000, -1205.000000)" fill="#FFFFFF">
            <g id="Group-8" transform="translate(613.500000, 1182.000000)">
                <g id="Group-3" transform="translate(32.500000, 23.000000)">
                    <path d="M40.3333409,42.8750103 C40.3333409,44.2256529 39.23648,45.3250068 37.8889003,45.3250068 L6.11109974,45.3250068 C4.76351999,45.3250068 3.66665909,44.2256529 3.66665909,42.8750103 L3.66665909,6.12498975 C3.66665909,4.7743471 4.76351999,3.67499316 6.11109974,3.67499316 L37.8889003,3.67499316 C39.23648,3.67499316 40.3333409,4.7743471 40.3333409,6.12498975 L40.3333409,42.8750103 Z M7.33332197,0 C3.28996886,0 0,3.29751493 0,7.34998975 L0,41.6500103 C0,45.7021433 3.28996886,49 7.33332197,49 L36.666678,49 C40.7096219,49 44,45.7021433 44,41.6500103 L44,7.34998975 C44,3.29751493 40.7096219,0 36.666678,0 L7.33332197,0 Z" id="Fill-1"></path>
                    <path d="M24.1144938,19.0588105 L28.7811098,14.1704536 C29.6874928,13.2213415 29.6874928,11.666538 28.7811098,10.7118341 C27.8749872,9.76272198 26.3906076,9.76272198 25.4791465,10.7118341 L21.4999023,14.8851859 L17.515515,10.7118341 C16.6093924,9.76272198 15.1250128,9.76272198 14.2135516,10.7118341 C13.3020905,11.6611507 13.3071686,13.2157497 14.2135516,14.1704536 L18.8801677,19.0588105 L13.3333406,19.0588105 C12.0520866,19.0588105 11,20.1605388 11,21.5028525 C11,22.8448253 12.0520866,23.9468946 13.3333406,23.9468946 L19.1665618,23.9468946 L19.1665618,26.3909366 L14.4998806,26.3909366 C13.2186267,26.3909366 12.1665401,27.4929377 12.1665401,28.8349105 C12.1665401,30.1769515 13.2186267,31.2789526 14.4998806,31.2789526 L19.1665618,31.2789526 L19.1665618,35.5559579 C19.1665618,36.8980671 20.2186484,38 21.4999023,38 C22.7810912,38 23.8331778,36.8980671 23.8331778,35.5559579 L23.8331778,31.2789526 L28.4998589,31.2789526 C29.7813733,31.2789526 30.8334599,30.1769515 30.8334599,28.8349105 C30.8334599,27.4929377 29.7813733,26.3909366 28.4998589,26.3909366 L23.8331778,26.3909366 L23.8331778,23.9468946 L29.6666594,23.9468946 C30.9479134,23.9468946 32,22.8448253 32,21.5028525 C32,20.1605388 30.9479134,19.0588105 29.6666594,19.0588105 L24.1144938,19.0588105 Z" id="Fill-4"></path>
                </g>
            </g>
        </g>
    </g>
</svg>