<?xml version="1.0" encoding="UTF-8"?>
<svg width="35px" height="35px" viewBox="0 0 35 35" version="1.1" xmlns="http://www.w3.org/2000/svg" xmlns:xlink="http://www.w3.org/1999/xlink">
    <title>Fill 1</title>
    <g id="Page-1" stroke="none" stroke-width="1" fill="none" fill-rule="evenodd">
        <g id="2-个人主页-copy-2" transform="translate(-35.000000, -512.000000)" fill="#CF5735">
            <g id="拍卖专场" transform="translate(0.000000, 481.000000)">
                <g id="Group-12" transform="translate(35.000000, 30.999749)">
                    <path d="M21.9298029,33.2320283 C21.9298029,33.7666538 21.4012726,34.1999568 20.7489593,34.1999568 L3.36302666,34.1999568 C2.71088041,34.1999568 2.18201614,33.7666538 2.18201614,33.2320283 C2.18201614,32.6973193 2.71088041,32.2641834 3.36302666,32.2641834 L20.7489593,32.2641834 C21.4012726,32.2641834 21.9298029,32.6973193 21.9298029,33.2320283 L21.9298029,33.2320283 Z M16.4095838,4.50891236 C17.1926936,4.83212574 17.4562491,5.95848807 16.9984817,7.02456621 L14.4905095,12.8619452 L16.3105991,13.6134101 L30.4305821,19.4414793 C31.4357916,19.8563714 31.9077532,20.9913755 31.4843863,21.976713 C31.0612698,22.9621756 29.903012,23.4248275 28.8979695,23.0095179 L14.7778613,17.181073 L12.95773,16.4299421 L10.2263222,22.7880028 C9.76838785,23.8537469 8.76221816,24.4556703 7.9787743,24.1326239 L3.53540435,22.2984652 C2.75212748,21.9752518 2.48840506,20.8490564 2.94633939,19.7828531 L9.71849894,4.01970874 C10.1764333,2.9534636 11.182603,2.35137326 11.9657128,2.67458664 L16.4095838,4.50891236 Z M8.89756533,0.942877629 L0.127385976,21.3570467 C-0.202047868,22.1240001 0.129515126,22.9930274 0.867912844,23.2976629 L9.11365322,26.7009638 C9.85205094,27.0060585 10.7179889,26.6316203 11.0474228,25.8643746 L14.0113672,18.9653428 L29.608396,25.403017 C30.8030581,25.8964789 32.1170362,25.4925248 32.5426158,24.5008417 L34.0660855,20.955514 C34.4918739,19.9641648 33.868659,18.7604851 32.6737882,18.2671484 L17.0769263,11.8293073 L19.8174351,5.45020559 C20.147036,4.68329395 19.8155147,3.81439184 19.0770753,3.5093806 L10.8313349,0.10612151 C10.0927702,-0.198847977 9.22699917,0.175924246 8.89756533,0.942877629 L8.89756533,0.942877629 Z" id="Fill-1"></path>
                </g>
            </g>
        </g>
    </g>
</svg>