<?xml version="1.0" encoding="UTF-8"?>
<svg width="53px" height="50px" viewBox="0 0 53 50" version="1.1" xmlns="http://www.w3.org/2000/svg" xmlns:xlink="http://www.w3.org/1999/xlink">
    <title>Fill 1</title>
    <g id="Page-1" stroke="none" stroke-width="1" fill="none" fill-rule="evenodd">
        <g id="1-首页-copy2" transform="translate(-640.000000, -554.000000)" fill="#627D8F">
            <g id="Group-42" transform="translate(-35.000000, 532.000000)">
                <g id="8个图标" transform="translate(66.000000, 0.000000)">
                    <g id="Group-12" transform="translate(583.000000, 0.000000)">
                        <g id="Group-21" transform="translate(6.000000, 0.000000)">
                            <path d="M65.112245,30.184713 L45.84924,30.184713 L52.7965091,23.2375082 C53.6035138,22.4304393 54.4894136,22.018103 55.4544013,22.0005636 C56.4193248,21.9829599 57.3052246,22.3777568 58.1123578,23.1848258 L65.112245,30.184713 Z M69.0594431,31.8689442 C70.0419059,31.8689442 70.8050943,32.0004575 71.3489439,32.2637411 C71.8927935,32.5267035 72.2787886,32.8514713 72.5069934,33.2372094 C72.7350055,33.6232045 72.8401775,34.0355408 72.8227024,34.4742183 C72.8050345,34.9126388 72.7435503,35.2898321 72.6384424,35.6057981 C72.5333346,35.9215071 72.3051298,36.5705288 71.9542777,37.5530559 C71.6034257,38.535583 71.2262324,39.6144804 70.8227622,40.790005 C70.4191634,41.9652727 70.0155647,43.1319955 69.6120303,44.2899165 C69.208817,45.4476447 68.8839849,46.3598858 68.6386262,47.0267039 C68.1822808,48.4301121 67.61209,49.4038374 66.9280538,49.947687 C66.2438248,50.4914723 65.392811,50.7635577 64.3753979,50.7635577 L36.7439835,50.7635577 L37.4808307,55.5002211 L64.0594319,55.5002211 C65.7436631,55.5002211 66.5858751,56.2195289 66.5858751,57.6580159 C66.5858751,58.35972 66.4193472,58.9650538 66.0857133,59.4737604 C65.7524649,59.9827239 65.0947056,60.2369487 64.1121785,60.2369487 L36.5334466,60.2369487 C35.8317425,60.2369487 35.243948,60.0790942 34.7703845,59.7633852 C34.2968209,59.4476761 33.9020883,59.0353399 33.5861223,58.5266333 C33.2704132,58.0176697 33.0159315,57.4650183 32.8229339,56.868679 C32.6301934,56.2722113 32.4808837,55.7108223 32.3757116,55.1845121 C32.3405686,54.9739751 32.2441983,54.4652686 32.0860868,53.6581996 C31.9282323,52.8510664 31.7352347,51.8424551 31.5073511,50.6317874 C31.2792748,49.4213768 31.024793,48.0704582 30.7441628,46.5792245 C30.4633398,45.0879909 30.1827738,43.5879554 29.9019508,42.0794393 C29.2353897,38.535583 28.4810032,34.5881279 27.638984,30.2374597 L23.6915932,30.2374597 C23.1653472,30.2374597 22.7266055,30.1056894 22.3758177,29.8426628 C22.0249656,29.5793792 21.7353408,29.2636701 21.5074572,28.8952787 C21.2793166,28.5268872 21.1214621,28.1320903 21.0336367,27.7109522 C20.9460682,27.2901353 20.9021234,26.9041403 20.9021234,26.5532882 C20.9021234,25.8513271 21.1390658,25.2725915 21.6126293,24.8163746 C22.0864498,24.3600934 22.7266055,24.1322099 23.5337387,24.1322099 L28.8493947,24.1322099 C29.5510988,24.1322099 30.1124878,24.237382 30.5336259,24.4479189 C30.954764,24.6585201 31.2880124,24.9214824 31.5334996,25.2374484 C31.7791796,25.5531575 31.9545735,25.8864701 32.0600026,26.2373222 C32.1651747,26.5881742 32.2530001,26.8865366 32.3230292,27.1320238 C32.393251,27.4128468 32.4632801,27.8075795 32.5335661,28.3162861 C32.6038522,28.8249926 32.6738812,29.342758 32.744103,29.869004 C32.8492751,30.500422 32.9547042,31.1672401 33.0598121,31.8689442 L69.0594431,31.8689442 Z M60.2174059,61.7633254 C60.884224,61.7633254 61.5244438,61.8860369 62.1385795,62.1316526 C62.7526509,62.3773968 63.2789611,62.7195113 63.7173816,63.1581888 C64.1560591,63.5966093 64.5069112,64.1141177 64.770259,64.7106497 C65.0332214,65.3071817 65.1646705,65.9385998 65.1646705,66.6054179 C65.1646705,67.271979 65.0332214,67.903654 64.770259,68.5001218 C64.5069112,69.096461 64.1560591,69.6142264 63.7173816,70.0525827 C63.2789611,70.4913244 62.7526509,70.8421765 62.1385795,71.1054601 C61.5244438,71.3684867 60.884224,71.5 60.2174059,71.5 C59.5508448,71.5 58.9191698,71.3684867 58.322888,71.1054601 C57.7263627,70.8421765 57.2088543,70.4913244 56.7701768,70.0525827 C56.3314993,69.6142264 55.9806473,69.096461 55.7176207,68.5001218 C55.4544013,67.903654 55.322888,67.271979 55.322888,66.6054179 C55.322888,65.9385998 55.4544013,65.3071817 55.7176207,64.7106497 C55.9806473,64.1141177 56.3314993,63.5966093 56.7701768,63.1581888 C57.2088543,62.7195113 57.7263627,62.3773968 58.322888,62.1316526 C58.9191698,61.8860369 59.5508448,61.7633254 60.2174059,61.7633254 L60.2174059,61.7633254 Z M38.3230426,61.6581533 C38.9896037,61.6581533 39.6212788,61.7808648 40.217618,62.0265448 C40.81415,62.272032 41.3315942,62.6140822 41.7702717,63.0527597 C42.2090134,63.491373 42.5598655,64.0089456 42.8228279,64.6054776 C43.0861115,65.2017527 43.2176248,65.8334277 43.2176248,66.4999888 C43.2176248,67.1668069 43.0861115,67.7982249 42.8228279,68.3948212 C42.5598655,68.9913532 42.2090134,69.5087973 41.7702717,69.9474748 C41.3315942,70.3859596 40.81415,70.7370686 40.217618,71.000031 C39.6212788,71.2633146 38.9896037,71.3948279 38.3230426,71.3948279 C37.6213385,71.3948279 36.9721241,71.2633146 36.3755921,71.000031 C35.7790601,70.7370686 35.2615517,70.3859596 34.8231312,69.9474748 C34.3844536,69.5087973 34.0336016,68.9913532 33.770318,68.3948212 C33.5072914,67.7982249 33.3757781,67.1668069 33.3757781,66.4999888 C33.3757781,65.8334277 33.5072914,65.2017527 33.770318,64.6054776 C34.0336016,64.0089456 34.3844536,63.491373 34.8231312,63.0527597 C35.2615517,62.6140822 35.7790601,62.272032 36.3755921,62.0265448 C36.9721241,61.7808648 37.6213385,61.6581533 38.3230426,61.6581533 L38.3230426,61.6581533 Z" id="Fill-1"></path>
                        </g>
                    </g>
                </g>
            </g>
        </g>
    </g>
</svg>