<svg xmlns="http://www.w3.org/2000/svg" xmlns:xlink="http://www.w3.org/1999/xlink" width="43.51284597143626" height="55.69640240175602" viewBox="0 0 43.51284597143626 55.69640240175602" fill="none"><path id="Fill 1" fill-rule="evenodd" style="fill:#C95E40" transform="translate(3.552713678800501e-15 3.197442310920451e-14)  rotate(0 21.75642298571813 27.848201200878016)" opacity="1" d="M8.89,28.48C16.3,28.48 23.73,33.55 31.15,33.55C36.75,33.55 40.94,32.1 42.66,31.39C43.18,31.18 43.51,30.67 43.51,30.12L43.51,4.6C43.51,4.15 43.3,3.73 42.93,3.47C42.56,3.21 42.09,3.14 41.66,3.3C39.58,4.04 35.86,5.06 31.15,5.06C23.73,5.06 16.3,0 8.89,0C6.12,0 1.95,0.35 0,0.8L0,53.95C0,54.92 0.78,55.7 1.74,55.7C2.7,55.7 3.48,54.92 3.48,53.95L3.48,28.78C5.29,28.59 7.31,28.48 8.89,28.48Z " /></svg>