<?xml version="1.0" encoding="UTF-8"?>
<svg width="23px" height="23px" viewBox="0 0 23 23" version="1.1" xmlns="http://www.w3.org/2000/svg" xmlns:xlink="http://www.w3.org/1999/xlink">
    <title>Fill 1</title>
    <g id="Page-1" stroke="none" stroke-width="1" fill="none" fill-rule="evenodd">
        <g id="2-个人主页-copy-2" transform="translate(-152.000000, -357.000000)" fill="#CF5735">
            <g id="Group-24" transform="translate(0.000000, 114.000000)">
                <g id="Group-10" transform="translate(34.000000, 191.000000)">
                    <g id="Group-8" transform="translate(118.500000, 51.000000)">
                        <path d="M17.8748652,7.41654085 L17.8748652,7.87464952 L17.8748652,8.79172957 L17.8748652,16.833219 L17.8748652,17.2999549 L17.4974216,17.5743025 L11.5389894,21.4759907 C11.2176232,21.70979 10.7823768,21.70979 10.4610106,21.4759907 L4.50257838,17.5743025 L4.1251348,17.2999549 L4.1251348,16.833219 L4.1251348,8.79172957 L4.1251348,7.87464952 L4.1251348,7.41654085 L4.1251348,7.19999608 L4.22219172,7.00674497 L4.68030039,6.09009627 L4.93351111,5.58324347 L5.50032352,5.58324347 L8.70837827,5.58324347 L9.148801,5.58324347 L9.42401129,5.92704065 L10.9820984,7.87464952 L10.9997843,7.87464952 L11.0179016,7.87464952 L12.5759887,5.92704065 L12.851199,5.58324347 L13.2916217,5.58324347 L16.4996765,5.58324347 L17.0664889,5.58324347 L17.3196996,6.09009627 L17.7778083,7.00674497 L17.8748652,7.19999608 L17.8748652,7.41654085 Z M17.8748652,3.74994608 L12.8330817,1 L11.4583243,1 L9.1669183,1 L4.1251348,3.74994608 L0,3.74994608 L0,4.66659477 L0.458540029,5.1251348 L2.74994608,7.41654085 L2.74994608,17.4893237 C2.74994608,17.783514 2.8914335,18.0600184 3.12997784,18.2325641 L10.4631674,23.0974883 C10.7836709,23.3286994 11.2163291,23.3286994 11.5368326,23.0974883 L18.8700222,18.2325641 C19.1085665,18.0600184 19.2500539,17.783514 19.2500539,17.4893237 L19.2500539,7.41654085 L21.54146,5.1251348 L22,4.66659477 L22,3.74994608 L17.8748652,3.74994608 Z M15.9022372,8.83529735 C13.2713476,11.3001118 11.0964099,14.6380071 10.2349758,16.5860473 C10.1564675,16.7629066 9.92568773,16.8008666 9.79023941,16.6632615 L5.98431403,12.7891806 C5.87043391,12.6731437 5.88121802,12.4842062 6.00803906,12.3824043 L6.70555479,11.8207682 C6.8051999,11.7405345 6.94711868,11.7396718 7.04719515,11.8190428 L9.16389875,13.4780691 C9.27993569,13.5690869 9.4455795,13.5522637 9.54177369,13.4405404 C10.6322621,12.177075 12.8210035,9.9098253 15.7797298,8.0946452 L15.9665105,8.53032293 C16.0118037,8.63600714 15.9859218,8.75678908 15.9022372,8.83529735 L15.9022372,8.83529735 Z M13.2916217,6.49989216 L11.4583243,8.79172957 L10.9997843,8.79172957 L10.5416757,8.79172957 L8.70837827,6.49989216 L5.50032352,6.49989216 L5.04178349,7.41654085 L5.04178349,7.87464952 L5.04178349,8.79172957 L5.04178349,16.2232701 C5.04178349,16.6063214 5.22511323,16.9665105 5.53526401,17.1916825 L10.2957981,20.2224466 C10.7155154,20.5282838 11.2844846,20.5282838 11.7042019,20.2224466 L16.464736,17.1916825 C16.7748868,16.9665105 16.9582165,16.6063214 16.9582165,16.2232701 L16.9582165,8.79172957 L16.9582165,7.87464952 L16.9582165,7.41654085 L16.4996765,6.49989216 L13.2916217,6.49989216 Z" id="Fill-1"></path>
                    </g>
                </g>
            </g>
        </g>
    </g>
</svg>