<?xml version="1.0" encoding="UTF-8"?>
<svg width="44px" height="57px" viewBox="0 0 44 57" version="1.1" xmlns="http://www.w3.org/2000/svg" xmlns:xlink="http://www.w3.org/1999/xlink">
    <title>Fill 1</title>
    <g id="Page-1" stroke="none" stroke-width="1" fill="none" fill-rule="evenodd">
        <g id="1-首页-copy2" transform="translate(-260.000000, -555.000000)" fill="#C95E40">
            <g id="Group-42" transform="translate(-35.000000, 532.000000)">
                <g id="8个图标" transform="translate(66.000000, 0.000000)">
                    <g id="Group-10" transform="translate(190.000000, 0.000000)">
                        <g id="Group-19" transform="translate(9.333333, 0.000000)">
                            <path d="M72.6451769,54.8416949 C70.9275053,55.5482831 66.7344805,56.9932015 61.1317978,56.9932015 C53.713693,56.9932015 46.2923756,51.9298296 38.8725116,51.9298296 C37.2955763,51.9298296 35.2799873,52.0466255 33.4682365,52.2276705 L33.4682365,77.4057058 C33.4682365,78.3668432 32.6889856,79.1464001 31.7275423,79.1464001 C30.766405,79.1464001 29.987154,78.3668432 29.987154,77.4057058 L29.987154,24.2453874 C31.9381879,23.8034447 36.1034478,23.4499977 38.8725116,23.4499977 C46.2923756,23.4499977 53.713693,28.5131401 61.1317978,28.5131401 C65.8503657,28.5131401 69.5662637,27.4898187 71.6496203,26.7449105 C72.0738944,26.5937719 72.5450552,26.6583271 72.9131878,26.9179244 C73.2810144,27.1775982 73.5,27.5997307 73.5,28.0503164 L73.5,53.562677 C73.5011444,54.1228688 73.1632242,54.6283723 72.6451769,54.8416949" id="Fill-1"></path>
                        </g>
                    </g>
                </g>
            </g>
        </g>
    </g>
</svg>