
<svg width="45px" height="55px" viewBox="0 0 45 55" version="1.1" xmlns="http://www.w3.org/2000/svg" xmlns:xlink="http://www.w3.org/1999/xlink">
    <title>Group</title>
    <g id="Page-1" stroke="none" stroke-width="1" fill="none" fill-rule="evenodd">
        <g id="1-首页-copy2" transform="translate(-61.000000, -551.000000)" fill="#568A84">
            <g id="Group-42" transform="translate(-35.000000, 532.000000)">
                <g id="8个图标" transform="translate(66.000000, 0.000000)">
                    <g id="Group-18" transform="translate(5.000000, 0.000000)">
                        <g id="Group" transform="translate(25.000000, 19.000000)">
                            <path d="M4.50008057,45 L40.5001392,45 C43.5002173,45 45,46.6666802 45,50.0001221 C45,53.3332384 43.5002173,55 40.5001392,55 L4.50008057,55 C1.5,55 0,53.3332384 0,50.0001221 C0,46.6666802 1.5,45 4.50008057,45" id="Fill-1"></path>
                            <path d="M37.6642664,9.80041139 C38.8296438,10.9828372 38.8296438,12.9006562 37.6642664,14.0833778 L29.8358733,22.0274132 L42.6533497,35.0351324 C44.4488834,36.8570531 44.4488834,39.8111213 42.6533497,41.6335595 C40.8581074,43.4554802 37.9471045,43.4554802 36.1517893,41.6335595 L23.3340214,28.6257663 L15.8777185,36.1927149 C14.7121954,37.3757322 12.8224551,37.3757322 11.6572233,36.1927149 L2.87430632,27.2796405 C1.70856456,26.0969189 1.70856456,24.1791738 2.87430632,22.9964522 L24.6605627,0.887041189 C25.8260859,-0.295680396 27.715899,-0.295680396 28.8809851,0.887041189 L37.6642664,9.80041139 Z" id="Fill-4"></path>
                        </g>
                    </g>
                </g>
            </g>
        </g>
    </g>
</svg>