
<svg width="29px" height="33px" viewBox="0 0 29 33" version="1.1" xmlns="http://www.w3.org/2000/svg" xmlns:xlink="http://www.w3.org/1999/xlink">
    <title>Fill 1</title>
    <g id="Page-1" stroke="none" stroke-width="1" fill="none" fill-rule="evenodd">
        <g id="2-个人主页-copy-2" transform="translate(-36.000000, -980.000000)" fill="#CF5735">
            <g id="置顶帖子" transform="translate(0.000000, 943.000000)">
                <g id="Group-27" transform="translate(36.000000, 37.000000)">
                    <path d="M12.976565,13.3471648 C13.8409394,13.3471648 14.5418628,13.8239347 14.5418628,14.4121815 C14.5418628,15.000395 13.8409394,15.4771649 12.9763695,15.4771649 L8.71935975,15.4771649 C7.85478982,15.4771649 7.15406196,15.000395 7.15406196,14.4121815 C7.15406196,13.8239347 7.85478982,13.3471648 8.71935975,13.3471648 L12.976565,13.3471648 Z M18.7225237,19.3995942 C19.5868981,19.3995942 20.2877726,19.8763641 20.2877726,20.4645776 C20.2877726,21.0528244 19.5868981,21.5295943 18.7225237,21.5295943 L8.71935975,21.5295943 C7.85498534,21.5295943 7.15406196,21.0528244 7.15406196,20.4645776 C7.15406196,19.8763641 7.85498534,19.3995942 8.71935975,19.3995942 L18.7225237,19.3995942 Z M2.22241211,2.12849124 L2.22241211,30.8540053 L26.7381606,30.8996582 L26.6337553,12.0234265 L17.6890283,2.19897461 L2.22241211,2.12849124 Z M18.0216003,0.0725362827 C18.6870376,0.0758111688 19.320557,0.360677379 19.7671146,0.857482485 L28.1103513,10.1396827 C28.5015779,10.5751937 28.7197733,11.1403804 28.7232437,11.7277092 L28.8299999,29.8600691 C28.8397222,31.5222938 27.509874,32.8775589 25.8535148,32.8874813 L2.98200373,32.8414863 C1.33405173,32.8382114 0,31.4917444 0,29.8319638 L0,3.00947367 C0,1.34739567 1.33766877,0 2.99173063,0 L18.0216003,0.0725362827 Z" id="Fill-1"></path>
                </g>
            </g>
        </g>
    </g>
</svg>