<svg xmlns="http://www.w3.org/2000/svg" xmlns:xlink="http://www.w3.org/1999/xlink" width="94" height="94" viewBox="0 0 94 94" fill="none"><defs><linearGradient id="linear_0" x1="50%" y1="0%" x2="51%" y2="100%" gradientUnits="objectBoundingBox"><stop offset="0" stop-color="#CF5735" stop-opacity="1" /><stop offset="0.975185151734104" stop-color="#D7714B" stop-opacity="1" /></linearGradient><filter id="filter_2" x="-11" y="-11" width="116" height="116" filterUnits="userSpaceOnUse" color-interpolation-filters="sRGB"><feFlood flood-opacity="0" result="BackgroundImageFix"/>
          <feColorMatrix in="SourceAlpha" type="matrix" values="0 0 0 0 0 0 0 0 0 0 0 0 0 0 0 0 0 0 127 0"/>
          <feOffset dx="0" dy="2"/>
          <feGaussianBlur stdDeviation="5.5"/>
          <feColorMatrix type="matrix" values="0 0 0 0 0.8117647058823529 0 0 0 0 0.3411764705882353 0 0 0 0 0.20784313725490197 0 0 0 0.48 0"/>
          <feBlend mode="normal" in2="BackgroundImageFix" result="effect1_Shadow"/>
          <feBlend mode="normal" in="SourceGraphic" in2="effect1_Shadow" result="shape"/></filter></defs><g opacity="1" transform="translate(0 0)  rotate(0 47 47)"><g id="Oval 4" filter="url(#filter_2)"><path id="Oval 4" fill-rule="evenodd" fill="url(#linear_0)" transform="translate(0 0)  rotate(0 47 47)" opacity="1" d="M94,47C94,21.05 72.95,0 47,0C21.05,0 0,21.05 0,47C0,72.95 21.05,94 47,94C72.95,94 94,72.95 94,47Z " /></g><path id="Fill 1" fill-rule="evenodd" style="fill:#FFFFFF" transform="translate(37.77778190457866 33)  rotate(0 12.49989786166596 14.062352451073025)" opacity="1" d="M24.2,11.55C23.86,11.05 23.07,10.25 23.07,10.25C20.27,7.14 11.75,2.46 8.22,0.96C8.22,0.96 6.13,0.03 5.13,0L4.99,0C3.46,0 2.03,0.89 1.3,2.33C0.9,3.11 0.5,5.43 0.5,5.43C0.2,7.48 0,10.63 0,14.08C0,17.7 0.2,20.98 0.56,23C0.56,23 0.93,24.88 1.17,25.5C1.54,26.39 2.19,27.13 3.03,27.61C3.68,27.95 4.4,28.13 5.13,28.12C5.89,28.09 7.32,27.58 7.89,27.34C11.62,25.84 20.31,20.92 23.03,17.91C23.5,17.43 24,16.85 24.13,16.71C24.7,15.96 25,15.04 25,14.05C25,13.16 24.73,12.27 24.2,11.55Z " /></g></svg>