
<svg width="47px" height="54px" viewBox="0 0 47 54" version="1.1" xmlns="http://www.w3.org/2000/svg" xmlns:xlink="http://www.w3.org/1999/xlink">
    <title>Fill 1</title>
    <g id="Page-1" stroke="none" stroke-width="1" fill="none" fill-rule="evenodd">
        <g id="1-首页-copy2" transform="translate(-60.000000, -726.000000)" fill="#787B99">
            <g id="Group-42" transform="translate(-35.000000, 532.000000)">
                <g id="8个图标" transform="translate(66.000000, 0.000000)">
                    <g id="Group-Copy" transform="translate(0.000000, 169.000000)">
                        <g id="Group-22" transform="translate(5.000000, 0.000000)">
                            <path d="M67.2480796,25 L27.7516701,25 C25.6797573,25 24,26.6794309 24,28.7511806 L24.0006528,28.826413 C24.0169722,29.6281043 24.2894248,30.4035212 24.7784361,31.038836 L40.5871342,51.5821226 L40.5871342,69.6409416 C40.5871342,71.5794432 41.6553215,73.3606257 43.3653513,74.2734521 L50.3357811,77.9950129 C51.7248896,78.7367303 53.4521364,78.2121427 54.1941802,76.8230342 L54.2279614,76.7574302 C54.426487,76.3611948 54.5301153,75.9239161 54.5301153,75.4801912 L54.5301153,51.5021575 L70.2253935,31.0336954 C71.4860683,29.3896776 71.175265,27.0347862 69.5309209,25.774193 C68.8758596,25.2722078 68.0732708,25 67.2480796,25" id="Fill-1"></path>
                        </g>
                    </g>
                </g>
            </g>
        </g>
    </g>
</svg>