
<svg width="39px" height="37px" viewBox="0 0 39 37" version="1.1" xmlns="http://www.w3.org/2000/svg" xmlns:xlink="http://www.w3.org/1999/xlink">
    <title>Fill 1</title>
    <g id="Page-1" stroke="none" stroke-width="1" fill="none" fill-rule="evenodd">
        <g id="1-首页-copy2" transform="translate(-36.000000, -2640.000000)" fill="#CF5735">
            <g id="Group-42" transform="translate(-35.000000, 532.000000)">
                <g id="瀑布流" transform="translate(0.000000, 2077.000000)">
                    <g id="Group-27" transform="translate(71.065676, 30.982679)">
                        <path d="M19.3429375,34.4787711 L15.253635,34.4787711 C12.649524,33.5689419 6.79621054,30.2576339 6.73682425,30.2231092 C6.73570742,30.2224294 6.73439635,30.2217982 6.73323096,30.2212155 L6.73323096,20.2492219 C8.16360067,20.365858 12.4998686,20.9334026 14.5015704,23.5925782 C14.6730283,23.8220142 14.9427188,23.9559369 15.2289676,23.9559369 L21.2736477,23.9559369 C21.9144176,24.2661247 24.3208494,25.5579587 24.886306,27.6817836 L13.4249449,27.6817836 C12.9220794,27.6817836 12.5152129,28.0884559 12.5152129,28.5890392 C12.5152129,29.0898167 12.9220794,29.496489 13.4249449,29.496489 L25.9141794,29.496489 C26.4173848,29.496489 26.8240571,29.0898167 26.8240571,28.5890392 C26.8240571,27.5224652 26.514889,26.5922903 26.0507241,25.7961837 L33.6130325,25.7961837 C35.4747419,25.7961837 36.4167164,27.0297483 36.8412094,27.8642641 L19.3429375,34.4787711 Z M1.81902704,31.0736492 L4.91420393,31.0736492 L4.91420393,18.5810643 L1.81902704,18.5810643 L1.81902704,31.0736492 Z M38.9020547,28.1664399 C38.5388417,26.7195605 36.9633811,23.9815269 33.6130325,23.9815269 L24.5429532,23.9815269 C23.2774375,22.8430872 21.9367542,22.2589358 21.8311408,22.2139226 C21.7175153,22.165996 21.5963149,22.1410858 21.4730264,22.1410858 L15.6639006,22.1410858 C13.0459506,19.0936899 8.20060178,18.5300299 6.73323096,18.4283011 L6.73323096,17.6735659 C6.73323096,17.1729826 6.32655865,16.7663103 5.82374172,16.7663103 L0.909149335,16.7663103 C0.406672311,16.7663103 0,17.1729826 0,17.6735659 L0,31.9810504 C0,32.4826534 0.406672311,32.8893257 0.909149335,32.8893257 L5.82374172,32.8893257 C6.22356737,32.8893257 6.56250143,32.6318718 6.68447884,32.2743886 C8.48680197,33.2720104 12.6867194,35.5426744 14.8164198,36.2475407 C14.9089711,36.2775009 15.0047758,36.2936221 15.10262,36.2936221 L19.5094425,36.2936221 C19.6194747,36.2936221 19.7293126,36.2731307 19.8321097,36.2342358 L38.3429107,29.2370442 C38.7745903,29.0738411 39.015486,28.6139494 38.9020547,28.1664399 L38.9020547,28.1664399 Z M28.6705679,11.6226218 C30.5552452,11.6226218 32.0882177,13.152001 32.0882177,15.0323081 C32.0882177,16.9123724 30.5552452,18.4417517 28.6705679,18.4417517 C26.7859391,18.4417517 25.2531123,16.9123724 25.2531123,15.0323081 C25.2531123,13.152001 26.7859391,11.6226218 28.6705679,11.6226218 L28.6705679,11.6226218 Z M28.6705679,20.2564085 C31.5582569,20.2564085 33.9072447,17.912762 33.9072447,15.0323081 C33.9072447,12.1516114 31.5582569,9.80796498 28.6705679,9.80796498 C25.7829274,9.80796498 23.4339396,12.1516114 23.4339396,15.0323081 C23.4339396,17.912762 25.7829274,20.2564085 28.6705679,20.2564085 L28.6705679,20.2564085 Z M16.3330768,1.81431692 C18.2177541,1.81431692 19.7505324,3.34369616 19.7505324,5.22376046 C19.7505324,7.10406755 18.2177541,8.63344679 16.3330768,8.63344679 C14.4478654,8.63344679 12.9148929,7.10406755 12.9148929,5.22376046 C12.9148929,3.34369616 14.4478654,1.81431692 16.3330768,1.81431692 L16.3330768,1.81431692 Z M16.3330768,10.4481036 C19.2207659,10.4481036 21.5687825,8.1040687 21.5687825,5.22376046 C21.5687825,2.34330655 19.2207659,0 16.3330768,0 C13.4452421,0 11.0962543,2.34330655 11.0962543,5.22376046 C11.0962543,8.1040687 13.4452421,10.4481036 16.3330768,10.4481036 L16.3330768,10.4481036 Z" id="Fill-1"></path>
                    </g>
                </g>
            </g>
        </g>
    </g>
</svg>