
<svg width="27px" height="27px" viewBox="0 0 27 27" version="1.1" xmlns="http://www.w3.org/2000/svg" xmlns:xlink="http://www.w3.org/1999/xlink">
    <title>Group 3</title>
    <g id="Page-1" stroke="none" stroke-width="1" fill="none" fill-rule="evenodd">
        <g id="9-话题详情页-copy-2" transform="translate(-631.000000, -294.000000)" stroke="#4D4D4D">
            <g id="Group" transform="translate(0.000000, 114.086957)">
                <g id="Group-3" transform="translate(631.000000, 179.913043)">
                    <path d="M15.0245851,0.5 C15.7345403,0.5 16.4172017,0.788080346 16.9496715,1.24632998 C17.4816834,1.70418553 17.8671688,2.33484036 17.9709174,3.03467618 L17.9709174,3.03467618 L18.1752429,4.41179796 C18.4858482,4.5554079 18.7880247,4.71289536 19.0808745,4.88341561 L19.0808745,4.88341561 L20.3255165,4.39386331 C20.9849068,4.13381727 21.7246018,4.15126308 22.3878614,4.38348396 C23.0499244,4.61528591 23.639783,5.06254531 23.9961018,5.6797076 L23.9961018,5.6797076 L25.5206442,8.3202924 C25.8756218,8.93513168 25.9674676,9.67037396 25.8368466,10.3606311 C25.706338,11.0502947 25.3529177,11.6994623 24.7986698,12.1392661 L24.7986698,12.1392661 L24.1361271,12.6652633 C24.1598751,12.9405279 24.1719784,13.2189217 24.1719784,13.5 C24.1719784,13.7785177 24.1600947,14.0543996 24.1367732,14.3272129 L24.1367732,14.3272129 L24.7984637,14.8547598 C25.35356,15.2966122 25.7084444,15.9467413 25.8390286,16.6379079 C25.9693495,17.3276808 25.8769933,18.0624928 25.5206442,18.6797076 L25.5206442,18.6797076 L23.9961018,21.3202924 C23.6406738,21.9359117 23.0501901,22.3843373 22.3863609,22.616648 C21.7245096,22.8482665 20.9857348,22.8664027 20.3246494,22.605655 L20.3246494,22.605655 L19.082023,22.1159156 C18.7911435,22.2853365 18.4910597,22.4418984 18.1826517,22.5847732 L18.1826517,22.5847732 L17.9759968,23.9620995 C17.8708895,24.6637532 17.4853034,25.2961566 16.9520277,25.7548291 C16.4198273,26.2125768 15.7372834,26.5 15.0245851,26.5 L15.0245851,26.5 L11.9755004,26.5 C11.2646444,26.5 10.5810546,26.2128389 10.047953,25.7541013 C9.51643986,25.2967305 9.13134612,24.6660009 9.02663762,23.9632451 L9.02663762,23.9632451 L8.8215528,22.5867458 C8.51311244,22.4440174 8.21298974,22.2876022 7.92206454,22.1183276 L7.92206454,22.1183276 L6.67757587,22.6073397 C6.0173723,22.8671409 5.27690177,22.8494153 4.61304187,22.6169212 C3.95052054,22.384896 3.36033282,21.9375072 3.00398366,21.3202924 L3.00398366,21.3202924 L1.47944132,18.6797076 C1.12401334,18.0640883 1.03090722,17.3285016 1.16163488,16.6374532 C1.29197301,15.948464 1.64565401,15.2995982 2.20195289,14.8575013 L2.20195289,14.8575013 L2.86354678,14.3315981 C2.83997718,14.057356 2.82796574,13.7800101 2.82796574,13.5 C2.82796574,13.2199659 2.83997924,12.9425964 2.86355285,12.6683314 L2.86355285,12.6683314 L2.20116014,12.1420347 C1.64625851,11.7010089 1.29151953,11.0516914 1.16099894,10.3611813 C1.03071381,9.67191693 1.1231225,8.93745469 1.47944132,8.3202924 L1.47944132,8.3202924 L3.00398366,5.6797076 C3.35896128,5.06486832 3.94977688,4.61770639 4.61286759,4.38569886 C5.27538806,4.15389084 6.01429389,4.13537806 6.67206752,4.39537735 L6.67206752,4.39537735 L7.91371551,4.88653527 C8.20687239,4.71561082 8.50938831,4.55775149 8.82036136,4.41380566 L8.82036136,4.41380566 L9.02663392,3.03589796 C9.13112261,2.33482618 9.51607861,1.70295444 10.0488176,1.24466526 C10.5805955,0.787202848 11.2628628,0.5 11.9755004,0.5 L11.9755004,0.5 Z" id="Combined-Shape"></path>
                    <circle id="Oval-6" cx="13.5781853" cy="13.5781853" r="4.82142857"></circle>
                </g>
            </g>
        </g>
    </g>
</svg>