
<svg width="25px" height="25px" viewBox="0 0 25 25" version="1.1" xmlns="http://www.w3.org/2000/svg" xmlns:xlink="http://www.w3.org/1999/xlink">
    <title>成组</title>
    <g id="Page-1" stroke="none" stroke-width="1" fill="none" fill-rule="evenodd">
        <g id="5-社区-copy-2" transform="translate(-479.000000, -836.000000)" stroke="#B5B5B5">
            <g id="置顶帖子" transform="translate(0.000000, 223.000000)">
                <g id="Group-18" transform="translate(34.000000, 595.000000)">
                    <g id="评论-copy" transform="translate(442.000000, 17.000000)">
                        <g id="成组" transform="translate(4.068242, 2.043326)">
                            <path d="M5.88846936,20.1402244 C2.75182547,20.1949747 0.204514824,17.6319577 0.1498683,14.5012605 L0.000880571869,5.96575923 C-0.053754979,2.83569062 2.44087718,0.253951595 5.57384526,0.199265434 L16.9391858,0.000882677768 C20.0716847,-0.0537952949 22.6553568,2.43867279 22.7100033,5.56937002 L22.858991,14.1048712 C22.9136266,17.2349399 20.4144934,19.8167574 17.2731731,19.8715894 L14.3448923,19.8979246" id="矩形-16"></path>
                            <path d="M5.20259172,19.6200551 L8.83798804,19.6200551 L10.6856341,23.6777054" id="Path-24" stroke-linecap="round"></path>
                            <line x1="14.0453283" y1="19.5193904" x2="10.8178994" y2="23.5378925" id="Path-25" stroke-linecap="round"></line>
                            <line x1="5.81980398" y1="7.40132322" x2="15.271972" y2="7.40132322" id="Path-26" stroke-linecap="round"></line>
                            <line x1="5.81980398" y1="11.6599323" x2="17.852678" y2="11.6599323" id="Path-26-Copy" stroke-linecap="round"></line>
                        </g>
                    </g>
                </g>
            </g>
        </g>
    </g>
</svg>