
<svg width="34px" height="42px" viewBox="0 0 34 42" version="1.1" xmlns="http://www.w3.org/2000/svg" xmlns:xlink="http://www.w3.org/1999/xlink">
    <title>Fill 1</title>
    <g id="Page-1" stroke="none" stroke-width="1" fill="none" fill-rule="evenodd">
        <g id="3-实时专场-参拍-copy-3" transform="translate(-37.000000, -1391.000000)" fill="#424242">
            <g id="Group-16" transform="translate(0.000000, 1361.000000)">
                <g id="Group-13" transform="translate(37.000000, 12.000000)">
                    <path d="M30.6198849,57.3750481 L3.30344532,57.3750481 C2.93010014,57.3750481 2.63499236,57.0674305 2.64714325,56.6941366 L3.7176011,27.8191526 C3.73005961,27.4664691 4.02121964,27.1874599 4.37390317,27.1874599 L7.4460285,27.1874599 C7.62654874,27.1874599 7.77410264,27.3350651 7.77410264,27.5157392 L7.77410264,32.4376202 C7.77410264,32.7985068 7.9217078,33.1265297 8.15959871,33.3644719 C8.40574403,33.6105659 8.7420213,33.7581711 9.11957059,33.749968 C9.8373449,33.7335617 10.4033099,33.1307338 10.4033099,32.4129595 L10.4033099,27.5157392 C10.4033099,27.3350651 10.5509151,27.1874599 10.7313328,27.1874599 L23.2000468,27.1874599 C23.3807208,27.1874599 23.528326,27.3350651 23.528326,27.5157392 L23.528326,32.4376202 C23.528326,32.7985068 23.6759311,33.1265297 23.913822,33.3644719 C24.1599161,33.6105659 24.4962446,33.7581711 24.8734863,33.749968 C25.5912606,33.7335617 26.1574307,33.1307338 26.1574307,32.4129595 L26.1574307,27.5157392 C26.1574307,27.3350651 26.3050872,27.1874599 26.4855049,27.1874599 L29.5574764,27.1874599 C29.910365,27.1874599 30.2015763,27.4664691 30.2137272,27.8191526 L31.2762383,56.6941366 C31.2883892,57.0674305 30.993025,57.3750481 30.6198849,57.3750481 M11.0553566,24.3287699 C11.3754327,23.6642647 11.8059948,23.061283 12.3228948,22.5485871 C13.5122981,21.3591838 15.1529251,20.6249519 16.9616139,20.6249519 C19.5621102,20.6249519 21.8055138,22.1344313 22.8719726,24.3287699 C22.9252417,24.4353594 22.8433642,24.562508 22.7243675,24.562508 L11.2029618,24.562508 C11.0841702,24.562508 11.0020875,24.4353594 11.0553566,24.3287699 M33.9298499,57.2765079 L33.6346396,49.4999359 L32.7568529,25.8258421 C32.7321922,25.1202699 32.1498209,24.562508 31.4441974,24.562508 L26.2436149,24.562508 C25.9646058,24.562508 25.7184605,24.3860893 25.6241757,24.1194875 C25.1647489,22.8193418 24.4182636,21.6503438 23.4585993,20.6906283 C21.7973107,19.0293909 19.5005867,18 16.9616139,18 C12.9625855,18 9.55833577,20.5552766 8.29925709,24.1194875 C8.20486976,24.382039 7.95872444,24.562508 7.67981785,24.562508 L2.47492869,24.562508 C1.76935654,24.562508 1.19113806,25.1202699 1.16232455,25.8258421 L0.288741936,49.4999359 L0.00173474946,57.2765079 C-0.0517394369,58.7655307 1.13786895,60 2.62668668,60 L31.3048467,60 C32.7936644,60 33.983119,58.7655307 33.9298499,57.2765079" id="Fill-1"></path>
                </g>
            </g>
        </g>
    </g>
</svg>